<svg xmlns="http://www.w3.org/2000/svg" viewBox="0 0 4.2333332 4.2333335" height="16" width="16"><path fill="#595959" font-family="Source Sans Pro" font-size="16.037" font-weight="400" style="line-height:1.25;-inkscape-font-specification:'Source Sans Pro'" d="M1.262 3.199a.638.638 0 0 1-.437-.153C.71 2.944.655 2.8.655 2.613c0-.226.1-.399.301-.517.201-.122.516-.207.946-.255a1.06 1.06 0 0 0-.017-.191.41.41 0 0 0-.068-.165.332.332 0 0 0-.127-.115.413.413 0 0 0-.208-.047.787.787 0 0 0-.322.068 1.719 1.719 0 0 0-.276.153l-.14-.242c.11-.07.227-.13.348-.178.136-.06.284-.09.433-.09a.585.585 0 0 1 .59.438.999.999 0 0 1 .292-.318.668.668 0 0 1 .386-.12.78.78 0 0 1 .336.069c.099.045.18.11.246.195a.853.853 0 0 1 .152.31c.035.118.051.251.051.398 0 .08-.004.145-.012.196H2.229a.866.866 0 0 0 .055.292.788.788 0 0 0 .14.225.593.593 0 0 0 .446.195.731.731 0 0 0 .267-.046c.08-.034.157-.075.234-.123l.127.242a1.828 1.828 0 0 1-.297.148 1.013 1.013 0 0 1-.373.063.772.772 0 0 1-.434-.114 1.292 1.292 0 0 1-.292-.271 1.683 1.683 0 0 1-.429.288.978.978 0 0 1-.411.098zm.097-.28a.736.736 0 0 0 .314-.08c.117-.06.222-.14.31-.238a.991.991 0 0 1-.055-.191 1.596 1.596 0 0 1-.026-.234V2.07a3.378 3.378 0 0 0-.42.08 1.195 1.195 0 0 0-.28.111.445.445 0 0 0-.157.148.35.35 0 0 0-.046.179c0 .119.033.204.101.254.071.051.157.077.26.077zm.87-.95h1.044c0-.213-.042-.376-.127-.489a.417.417 0 0 0-.361-.17.482.482 0 0 0-.373.179c-.102.116-.163.276-.183.48z"/></svg>