<svg xmlns="http://www.w3.org/2000/svg" viewBox="0 0 4.2333332 4.2333335" height="16" width="16"><path fill="#595959" d="M2.318.22c-.8 0-1.234.669-1.234 1.442 0 .743.37 1.39 1.123 1.441 0 0-.103.217-.156.325.13.027.327.038.327.204 0 .164-.223.183-.463.212l.034.17c.268-.025.7-.056.7-.387 0-.164-.095-.25-.31-.301l.098-.227c.308-.045.489-.154.713-.397l-.195-.22c-.16.179-.364.314-.645.314-.58 0-.861-.523-.861-1.142 0-.546.261-1.124.873-1.124.212 0 .404.086.57.263l.19-.23C2.885.366 2.652.22 2.318.22z" style="line-height:1.25;-inkscape-font-specification:'Source Sans Pro'"/></svg>