<svg xmlns="http://www.w3.org/2000/svg" xmlns:xlink="http://www.w3.org/1999/xlink" viewBox="0 0 16 4.23328" height="16" width="16"><use transform="translate(-51.265 -398.324)" height="100%" width="100%" id="a" xlink:href="#path1721" fill="#666"/><use height="100%" width="100%" transform="translate(0 4)" xlink:href="#a" fill="#666"/><path style="line-height:normal;font-variant-ligatures:normal;font-variant-position:normal;font-variant-caps:normal;font-variant-numeric:normal;font-variant-alternates:normal;font-variant-east-asian:normal;font-feature-settings:normal;font-variation-settings:normal;text-indent:0;text-align:start;text-decoration-line:none;text-decoration-style:solid;text-decoration-color:#000;text-transform:none;text-orientation:mixed;shape-padding:0;shape-margin:0;inline-size:0;isolation:auto;mix-blend-mode:normal" d="M8-5.883c-4.411 0-8 3.588-8 8 0 4.41 3.589 8 8 8 4.775 0 8-3.997 8-8 0-4.46-3.648-8-8-8zm0 1.199c.539 0 1.06.07 1.563.187L5.28 8.349a6.787 6.787 0 0 1-4.082-6.232 6.792 6.792 0 0 1 6.801-6.801zm2.715.564a6.79 6.79 0 0 1 4.086 6.237 6.79 6.79 0 0 1-8.37 6.61zM5.175-.69a.607.607 0 0 0-.402.178l-2.62 2.619 2.62 2.623c.572.547 1.404-.286.858-.858L3.867 2.109 5.631.345A.607.607 0 0 0 5.176-.69zm5.596 0a.607.607 0 0 0-.402 1.035l1.764 1.764-1.766 1.763c-.546.572.288 1.404.86.858l2.62-2.623-2.62-2.62a.607.607 0 0 0-.456-.177z" fill="#595959"/></svg>