<svg xmlns="http://www.w3.org/2000/svg" viewBox="0 0 4.2333332 4.2333335" height="16" width="16"><path style="line-height:normal;font-variant-ligatures:normal;font-variant-position:normal;font-variant-caps:normal;font-variant-numeric:normal;font-variant-alternates:normal;font-variant-east-asian:normal;font-feature-settings:normal;font-variation-settings:normal;text-indent:0;text-align:start;text-decoration-line:none;text-decoration-style:solid;text-decoration-color:#000;text-transform:none;text-orientation:mixed;shape-padding:0;shape-margin:0;inline-size:0;isolation:auto;mix-blend-mode:normal" d="M.911 1.273a.183.183 0 0 0-.121.054l-.79.79.79.79c.172.165.423-.086.259-.259l-.532-.531.532-.532a.183.183 0 0 0-.138-.312zm.882 0a.183.183 0 0 0-.122.054l-.79.79.79.79c.173.165.424-.086.26-.259l-.532-.531.531-.532a.183.183 0 0 0-.137-.312zm.648 0a.183.183 0 0 0-.138.312l.532.532-.532.532c-.165.172.086.423.259.258l.79-.79-.79-.79a.183.183 0 0 0-.122-.054zm.881 0a.183.183 0 0 0-.137.312l.531.532-.531.532c-.165.172.086.423.259.258l.79-.79-.79-.79a.183.183 0 0 0-.122-.054z" fill="#595959"/></svg>