<svg xmlns="http://www.w3.org/2000/svg" viewBox="0 0 4.2333332 4.2333335" height="16" width="16"><path fill="#595959" style="line-height:1.25;-inkscape-font-specification:'Source Sans Pro Bold'" d="M.636 1.357c-.775.32-.837 1.497-.21 1.519.196 0 .338-.13.338-.361 0-.185-.137-.336-.383-.317 0-.223.086-.393.397-.558zm1.058 0c-.775.32-.837 1.497-.21 1.519.196 0 .338-.13.338-.361 0-.185-.137-.336-.383-.317 0-.223.086-.393.397-.558zm1.056 0c-.197 0-.339.13-.339.361 0 .186.137.336.383.317 0 .223-.086.393-.397.559l.142.282c.775-.32.837-1.497.21-1.519zm1.058 0c-.197 0-.339.13-.339.361 0 .186.138.336.384.317 0 .223-.087.393-.397.559l.141.282c.776-.32.838-1.497.211-1.519z"/></svg>