<svg xmlns="http://www.w3.org/2000/svg" viewBox="0 0 4.2333332 4.2333335" height="16" width="16"><path d="M3.033.3c-.775.32-.837 1.496-.21 1.518.196 0 .338-.13.338-.361 0-.186-.137-.336-.383-.317 0-.223.086-.393.397-.559zm1.059 0c-.776.32-.838 1.496-.211 1.518.197 0 .339-.13.339-.361 0-.186-.138-.336-.384-.317 0-.223.087-.393.397-.559zM.352 2.415c-.196 0-.338.13-.338.36 0 .186.137.336.383.317 0 .224-.086.393-.397.559l.142.282c.775-.32.837-1.497.21-1.518zm1.059 0c-.197 0-.339.13-.339.36 0 .186.137.336.383.317 0 .224-.086.393-.397.559l.142.282c.775-.32.838-1.497.21-1.518z" style="line-height:1.25;-inkscape-font-specification:'Source Sans Pro Bold'" fill="#595959"/></svg>