<svg xmlns="http://www.w3.org/2000/svg" viewBox="0 0 4.2333332 4.2333335" height="16" width="16"><path d="M.37 0A.372.372 0 0 0 0 .37v3.493c0 .203.167.37.37.37h3.493c.203 0 .37-.167.37-.37V.37a.372.372 0 0 0-.37-.37zm0 .212h.16v3.18c0 .047.011.091.03.131l-.346.347C.21 2.705.212 1.536.212.37A.156.156 0 0 1 .37.212zm.37 0h2.752v3.18a.102.102 0 0 1-.105.105H.845a.102.102 0 0 1-.104-.105c.001-1.06-.004-2.12 0-3.18zm2.964 0h.159c.09 0 .159.068.159.158-.002 1.166.004 2.335-.002 3.5l-.347-.347a.316.316 0 0 0 .03-.131zM1.323 1.587c-.353 0-.353.53 0 .53s.353-.53 0-.53zm.794 0c-.353 0-.353.53 0 .53.352 0 .352-.53 0-.53zm.793 0c-.352 0-.352.53 0 .53.353 0 .353-.53 0-.53zm.614 2.087l.346.346c-1.22 0-2.461.004-3.507 0l.346-.345c.042.02.087.034.136.034h2.542c.05 0 .095-.014.137-.035z" style="line-height:normal;font-variant-ligatures:normal;font-variant-position:normal;font-variant-caps:normal;font-variant-numeric:normal;font-variant-alternates:normal;font-variant-east-asian:normal;font-feature-settings:normal;font-variation-settings:normal;text-indent:0;text-align:start;text-decoration-line:none;text-decoration-style:solid;text-decoration-color:#000;text-transform:none;text-orientation:mixed;shape-padding:0;shape-margin:0;inline-size:0;isolation:auto;mix-blend-mode:normal" color="#000" font-weight="400" font-family="sans-serif" white-space="normal" overflow="visible" fill="#595959"/></svg>