<svg xmlns="http://www.w3.org/2000/svg" viewBox="0 0 4.2333332 4.2333335" height="16" width="16"><path d="M2.948.314a.948.948 0 0 0-.644.267l-.176.146a.22.22 0 0 0 .28.338c.065-.052.13-.109.192-.16a.517.517 0 0 1 .736 0 .517.517 0 0 1 0 .735l-.001.001-.625.631a.519.519 0 0 1-.737 0 .22.22 0 0 0-.31.31.967.967 0 0 0 1.357 0 10.853 10.853 0 0 0 .674-.704.955.955 0 0 0-.048-1.285.947.947 0 0 0-.698-.278zm-1.06 1.059a.987.987 0 0 0-.674.277l-.001.001a10.853 10.853 0 0 0-.674.704.955.955 0 0 0 .048 1.285.962.962 0 0 0 1.342.013l.177-.147a.22.22 0 0 0-.282-.337c-.063.051-.129.108-.19.16a.517.517 0 0 1-.737 0 .517.517 0 0 1 0-.736h.001l.626-.632a.518.518 0 0 1 .737 0 .22.22 0 0 0 .31-.31.942.942 0 0 0-.683-.278z" style="line-height:normal;font-variant-ligatures:normal;font-variant-position:normal;font-variant-caps:normal;font-variant-numeric:normal;font-variant-alternates:normal;font-variant-east-asian:normal;font-feature-settings:normal;font-variation-settings:normal;text-indent:0;text-align:start;text-decoration-line:none;text-decoration-style:solid;text-decoration-color:#000;text-transform:none;text-orientation:mixed;shape-padding:0;shape-margin:0;inline-size:0;isolation:auto;mix-blend-mode:normal" fill="#595959"/></svg>