<svg xmlns="http://www.w3.org/2000/svg" viewBox="0 0 4.2333332 4.2333335" height="16" width="16"><path d="M1.765.33c-.432.715-.41 1.484 0 2.16l.255-.104a2.092 2.092 0 0 1 0-1.951zm2.023 0l-.254.105c.349.642.284 1.443 0 1.951l.254.104c.433-.715.405-1.484 0-2.16zM2.725.572a1.028 1.028 0 0 1-.391.146v.25h.283v.774h-.32v.324h.994v-.324h-.269V.57h-.297zM.792 3.241c-.373 0-.36.397-.529.397a.132.132 0 0 0 0 .264c.377 0 .332-.396.53-.396.2 0 .126.397.528.397.392 0 .345-.397.53-.397.21 0 .13.397.529.397.4 0 .342-.397.529-.397.194 0 .158.397.53.397a.132.132 0 0 0 0-.265c-.164 0-.158-.397-.53-.397-.394 0-.33.397-.53.397s-.133-.397-.528-.397c-.392 0-.334.397-.53.397-.18 0-.148-.397-.529-.397z" style="line-height:1.25;-inkscape-font-specification:'Source Sans Pro Heavy'" font-weight="900" font-size="8.909" font-family="Source Sans Pro" fill="#595959"/></svg>