<svg xmlns="http://www.w3.org/2000/svg" viewBox="0 0 4.2333332 4.2333335" height="16" width="16"><path fill="#595959" font-family="Source Sans Pro" font-size="16.037" font-weight="400" style="line-height:1.25;-inkscape-font-specification:'Source Sans Pro'" d="M1.44 3.199C.849 3.199.515 2.7.515 2.12c0-.624.378-1.086.933-1.086.383 0 .633.247.747.517.163-.333.425-.517.726-.517.604 0 .797.5.797.971 0 .08-.004.145-.012.195H2.352c.012.413.291.713.65.713.197 0 .367-.083.508-.17l.128.242c-.2.138-.437.212-.68.212-.36 0-.588-.208-.759-.513-.142.3-.352.514-.76.514zm.008-.289c.408 0 .577-.43.577-.79-.006-.43-.2-.797-.577-.797-.391 0-.576.411-.576.798 0 .389.175.79.576.79zm.904-.942h1.061c-.004-.41-.17-.658-.5-.658-.339 0-.548.355-.56.658z"/></svg>