<svg xmlns="http://www.w3.org/2000/svg" viewBox="0 0 4.2333332 4.2333335" height="16" width="16"><path fill="#595959" d="M.793 0A.791.791 0 0 0 0 .794v.635a.159.159 0 0 0 .158.158.159.159 0 0 0 .16-.158V.794A.46.46 0 0 1 .792.318h.635a.159.159 0 0 0 .16-.16.159.159 0 0 0-.16-.158zm2.012 0a.159.159 0 0 0-.159.159.159.159 0 0 0 .159.159h.635c.271 0 .476.193.476.476v.635a.159.159 0 0 0 .159.158.159.159 0 0 0 .159-.158V.794A.791.791 0 0 0 3.44 0zm-.291.689a.159.159 0 0 0-.152.112l-.794 2.54a.156.156 0 0 0 .104.198.168.168 0 0 0 .2-.104l.793-2.54A.16.16 0 0 0 2.514.69zm-1.19.638a.158.158 0 0 0-.113.046l-.636.635a.159.159 0 0 0 0 .225l.635.635c.055.055.176.049.225 0a.16.16 0 0 0 0-.225l-.523-.522.523-.523a.16.16 0 0 0-.112-.271zm1.587 0a.159.159 0 0 0-.113.27l.523.523-.524.523a.159.159 0 0 0 0 .224c.05.049.17.055.225 0l.635-.634a.158.158 0 0 0 0-.225l-.634-.635a.158.158 0 0 0-.112-.046zM.158 2.646A.159.159 0 0 0 0 2.805v.635c0 .447.36.793.793.793h.635a.159.159 0 0 0 .16-.159.159.159 0 0 0-.16-.158H.793a.459.459 0 0 1-.476-.477v-.635a.159.159 0 0 0-.159-.158zm3.916 0a.159.159 0 0 0-.159.159v.635a.459.459 0 0 1-.476.476h-.635a.159.159 0 0 0-.158.158.159.159 0 0 0 .158.16h.635a.791.791 0 0 0 .794-.795v-.635a.159.159 0 0 0-.159-.158z"/></svg>