<svg xmlns="http://www.w3.org/2000/svg" viewBox="0 0 4.2333332 4.2333335" height="16" width="16"><path d="M3.014.53C1.959.56 1.276 1.332 1.2 2.279c-.564.029-.976.278-.976.786 0 .415.444.64.855.64.885 0 1.434-.466 1.682-1.152.7-.095 1.246-.629 1.246-1.235 0-.545-.518-.802-.995-.788zm-.176.25c.107 0 .217.014.326.045-.495.376-.645.885-.761 1.4-.174.768-.615 1.295-1.29 1.295-.241 0-.69-.111-.69-.453 0-.345.467-.492.784-.507.023.177.067.374.146.494l.17-.052a1.857 1.857 0 0 1-.114-.437c.186.012.352.086.478.162l.12-.183a1.605 1.605 0 0 0-.62-.255c.042-.78.7-1.508 1.45-1.51zm.533.154c.215.095.26.302.246.518-.028.442-.44.905-.807.918.041-.3.105-.58.198-.83v-.001c.096-.254.22-.451.363-.605z" style="line-height:1.25;-inkscape-font-specification:'Niconne Bold'" font-weight="700" font-size="16.684" font-family="Niconne" fill="#595959"/></svg>