<svg xmlns="http://www.w3.org/2000/svg" viewBox="0 0 4.2333332 4.2333335" height="16" width="16"><path d="M2.635.307a.22.22 0 0 0-.198.15L1.38 3.632c-.101.282.329.425.416.138L2.854.595a.22.22 0 0 0-.219-.288zm-1.54.794a.22.22 0 0 0-.147.064L0 2.113l.95.95c.206.198.508-.103.31-.31L.62 2.113l.638-.639a.22.22 0 0 0-.165-.374zm2.025 0a.22.22 0 0 0-.146.374l.639.639-.64.638c-.197.207.105.508.312.31l.949-.949-.95-.948A.22.22 0 0 0 3.12 1.1z" style="line-height:normal;font-variant-ligatures:normal;font-variant-position:normal;font-variant-caps:normal;font-variant-numeric:normal;font-variant-alternates:normal;font-variant-east-asian:normal;font-feature-settings:normal;font-variation-settings:normal;text-indent:0;text-align:start;text-decoration-line:none;text-decoration-style:solid;text-decoration-color:#000;text-transform:none;text-orientation:mixed;shape-padding:0;shape-margin:0;inline-size:0;isolation:auto;mix-blend-mode:normal" color="#000" font-weight="400" font-family="sans-serif" white-space="normal" overflow="visible" fill="#595959"/></svg>