<svg xmlns="http://www.w3.org/2000/svg" viewBox="0 0 4.2333332 4.2333335" height="16" width="16"><path style="line-height:1.25;-inkscape-font-specification:'Source Sans Pro'" d="M.975 0L0 2.88h.374l.277-.878H1.7l.272.879h.39L1.389 0zm.189.298h.017l.14.492c.048.158.098.317.15.479l.137.439H.742l.137-.44a17.253 17.253 0 0 0 .285-.97zm2.342.44c-.316 0-.573.119-.821.27l.138.246c.182-.127.408-.224.623-.224.335 0 .43.244.43.526-.617.061-1.281.205-1.281.781 0 .397.265.595.61.595.279 0 .519-.152.706-.301l.03.249h.292V1.597c0-.554-.237-.859-.727-.859zm.37 1.05v.58c-.143.148-.354.28-.567.28-.243 0-.37-.14-.37-.336 0-.398.586-.468.938-.524zM2.594 2.91v.503H.22a.159.159 0 0 0-.16.159.159.159 0 0 0 .16.159h2.373v.502l1.64-.661z" fill="#595959"/></svg>