<svg xmlns="http://www.w3.org/2000/svg" viewBox="0 0 4.2333332 4.2333335" height="16" width="16"><path d="M3.04 3.64a1.357 1.357 0 0 1-.9.329c-1.11 0-1.775-.874-1.775-1.883 0-1.053.86-1.815 1.873-1.821.646.006 1.189.275 1.492.797l-.747.571c-.182-.322-.464-.474-.781-.478-.496-.008-.818.454-.818.967 0 .567.342.957.844.957.29 0 .548-.12.771-.36h-.633v-.72h1.502v1.944H3.04z" style="line-height:1.25;-inkscape-font-specification:'Raleway Heavy'" font-weight="900" font-size="19.444" font-family="Raleway" fill="#595959"/></svg>