<svg xmlns="http://www.w3.org/2000/svg" viewBox="0 0 4.2333332 4.2333335" height="16" width="16"><path style="line-height:1.25;-inkscape-font-specification:'Source Sans Pro'" d="M2.846 0L1.87 2.88h.373l.277-.878h1.05l.272.879h.39L3.26 0zm.189.298h.017l.14.492c.047.158.098.317.15.479l.136.439h-.865l.137-.44a18.182 18.182 0 0 0 .285-.97zM.91.738c-.316 0-.573.119-.82.27l.137.246c.183-.127.408-.224.624-.224.334 0 .43.244.43.526C.664 1.618 0 1.76 0 2.337c0 .397.265.595.61.595.28 0 .519-.152.706-.301l.03.249h.293V1.597c0-.554-.238-.859-.728-.859zm.37 1.05v.58c-.143.148-.354.28-.567.28-.243 0-.37-.14-.37-.336 0-.398.586-.468.938-.524zM2.594 2.91v.503H.22a.159.159 0 0 0-.16.159.159.159 0 0 0 .16.159h2.373v.502l1.64-.661z" fill="#595959"/></svg>