<svg xmlns="http://www.w3.org/2000/svg" viewBox="0 0 4.2333332 4.2333335" height="16" width="16"><path fill="#595959" overflow="visible" white-space="normal" font-family="sans-serif" font-weight="400" color="#000" style="line-height:normal;font-variant-ligatures:normal;font-variant-position:normal;font-variant-caps:normal;font-variant-numeric:normal;font-variant-alternates:normal;font-variant-east-asian:normal;font-feature-settings:normal;font-variation-settings:normal;text-indent:0;text-align:start;text-decoration-line:none;text-decoration-style:solid;text-decoration-color:#000;text-transform:none;text-orientation:mixed;shape-padding:0;shape-margin:0;inline-size:0;isolation:auto;mix-blend-mode:normal" d="M.54.296a.722.722 0 0 1-.286.092v.144h.223v.583h-.27v.189h.732v-.189H.711v-.82zM1.75.82c-.293 0-.293.439 0 .439h2.116c.293 0 .293-.44 0-.44zm-1.588.909l.125.125c.165-.164.368-.117.368.05 0 .18-.296.4-.482.558v.134H.93v-.197a4.583 4.583 0 0 0-.422.012c.157-.142.37-.322.37-.522 0-.369-.505-.423-.716-.16zm1.588.149c-.293 0-.293.44 0 .44h2.116c.293 0 .293-.44 0-.44zM.176 3.02l.118.143c.162-.14.363-.097.363.022 0 .132-.16.118-.271.135v.165c.184-.004.304.04.304.145 0 .147-.295.159-.435.017l-.108.148c.108.116.245.143.376.143.215 0 .401-.102.401-.294 0-.155-.109-.21-.226-.252.133-.051.192-.12.192-.224 0-.333-.512-.345-.714-.148zm1.574-.129c-.293 0-.293.44 0 .44h2.116c.293 0 .293-.44 0-.44z"/></svg>