<svg xmlns="http://www.w3.org/2000/svg" viewBox="0 0 4.2333332 4.2333335" height="16" width="16"><path d="M.661.661a.397.397 0 1 0 0 .794.397.397 0 0 0 0-.794zM1.808.84a.22.22 0 1 0 0 .439H3.75a.22.22 0 1 0 0-.44zm-1.147.88a.397.397 0 1 0 0 .795.397.397 0 0 0 0-.794zm1.147.178a.22.22 0 1 0 0 .44H3.75a.22.22 0 1 0 0-.44zm-1.147.881a.397.397 0 1 0 0 .794.397.397 0 0 0 0-.794zm1.147.177a.22.22 0 1 0 0 .44H3.75a.22.22 0 1 0 0-.44z" style="line-height:normal;font-variant-ligatures:normal;font-variant-position:normal;font-variant-caps:normal;font-variant-numeric:normal;font-variant-alternates:normal;font-variant-east-asian:normal;font-feature-settings:normal;font-variation-settings:normal;text-indent:0;text-align:start;text-decoration-line:none;text-decoration-style:solid;text-decoration-color:#000;text-transform:none;text-orientation:mixed;shape-padding:0;shape-margin:0;inline-size:0;isolation:auto;mix-blend-mode:normal" color="#000" font-weight="400" font-family="sans-serif" white-space="normal" overflow="visible" fill="#595959"/></svg>