<svg xmlns="http://www.w3.org/2000/svg" viewBox="0 0 4.2333332 4.2333335" height="16" width="16"><path d="M.489.843c-.293 0-.293.44 0 .44h2.03c.292 0 .292-.44 0-.44zm3.116.058L2.457 1.96a.22.22 0 0 0 0 .323L3.605 3.34a.22.22 0 0 0 .368-.161V1.063c0-.204-.224-.305-.368-.162zm-3.125 1c-.293 0-.293.44 0 .44h1.377c.293 0 .293-.44 0-.44zm0 1.059c-.293 0-.293.44 0 .44h2.038c.293 0 .293-.44 0-.44z" style="line-height:normal;font-variant-ligatures:normal;font-variant-position:normal;font-variant-caps:normal;font-variant-numeric:normal;font-variant-alternates:normal;font-variant-east-asian:normal;font-feature-settings:normal;font-variation-settings:normal;text-indent:0;text-align:start;text-decoration-line:none;text-decoration-style:solid;text-decoration-color:#000;text-transform:none;text-orientation:mixed;shape-padding:0;shape-margin:0;inline-size:0;isolation:auto;mix-blend-mode:normal" color="#000" font-weight="400" font-family="sans-serif" white-space="normal" overflow="visible" fill="#666"/></svg>