<svg xmlns="http://www.w3.org/2000/svg" viewBox="0 0 4.2333332 4.2333335" height="16" width="16"><path fill="#595959" font-family="Arca Majora" font-size="15.19" font-weight="900" d="M2.178.53a.887.887 0 0 0-.868.895c0 .263.052.318.125.446h.864c-.215-.106-.507-.233-.507-.446 0-.479.645-.5.772-.132l.454-.21C2.84.698 2.546.53 2.178.53zM.481 2.002a.22.22 0 0 0 .004.44h1.764c.18.102.319.2.319.365 0 .214-.197.341-.406.386-.244.05-.487-.136-.575-.378l-.442.197c.171.458.508.691.924.691.548 0 1.021-.335 1.021-.896a.78.78 0 0 0-.08-.366h.74a.22.22 0 0 0 0-.44H.485a.069.069 0 0 1-.004 0z" style="line-height:1.25;-inkscape-font-specification:'Arca Majora Heavy'"/></svg>