<svg xmlns="http://www.w3.org/2000/svg" viewBox="0 0 64 64" width="64" height="64">
  <circle cx="32.1" cy="31.5" r="24.1" fill="#fff"/>
  <path d="M32.9 39l-9.5 5c-1.4.7-3.1.2-3.8-1.2-.5-.9-.4-1.9.1-2.8l5.4-9.3 3.1-2.9-1.4-1.5c-.9-.9-1-2.4-.4-3.5l8.5-13.5C22.3 8 11 16.8 9.5 29.2 8 41.7 16.8 53 29.2 54.5S53 47.2 54.5 34.8c.2-1.5.2-3.1.1-4.6l-13.8 7.9c-1.1.6-2.5.4-3.4-.5L36 36.1 32.9 39zm15.4-22.7c-2.2-2.3-4.9-4.1-7.8-5.3l-8.2 13.1 7.6 7.9 13.4-7.7c-1-3-2.7-5.7-5-8zm4.1-3.9c10.8 11.3 10.5 29.2-.8 40.1S22.4 63 11.5 51.7s-10.4-29.3.9-40.1 29.2-10.5 40 .8z" fill="#666"/>
  <path d="M23.4 44l9.5-5 3-2.9L28 28l-3 2.9-5.4 9.3c-.5.8-.5 1.9-.1 2.8.8 1.3 2.5 1.8 3.9 1z" fill="#1d83d4"/>
</svg>
